# xmcd
#
# Track frame offsets:
#	150
#	20307
#	33147
#	50029
#	65171
#	87100
#	107081
#	126495
#	143035
#	159574
#	171562
#	190387
#	206426
#	222165
#	236789
#	258248
#	274735
#	293195
#	311460
#
# Disc length: 4354 seconds
#
# Revision: 0
# Processed by: cddbd v1.4PL0 Copyright (c) Steve Scherf et al.
# Submitted via: audiograbber 1.80
#
DISCID=20110013
DTITLE=Vários - Paixão De Rodeo
DYEAR=1900
DGENRE=
TTITLE0=Marlon E Maicon - Por Te Amar Assim
TTITLE1=Bruno E Marrone - Dormi Na Praça
TTITLE2=Roby E Roger - Volta Ao Começo
TTITLE3=Di Paulo E Paulinho - Tô Por Aí
TTITLE4=Amado Batista E Fagner - Romance No Deserto
TTITLE5=Rick E Renner - O Amor E Eu
TTITLE6=Guilherme E Santiago - Só Falta Você
TTITLE7=João Márcio E Fabiano - Sempre Te Amei
TTITLE8=Rene - Só Um Grande Amo
TTITLE9=Roberta Miranda - Atração Fatal
TTITLE10=Gino E Geno - Coração Cigano
TTITLE11=Roberta Miranda - Faz Amor Comigo
TTITLE12=Rick E Renner - Fica Amor Ta Cedo
TTITLE13=Tino - Fica Comigo
TTITLE14=Chrystian - Foi Só Um Engano
TTITLE15=Cio E João Vítor - Mil Vidas
TTITLE16=Gian E Giovani - Aperte O Play
TTITLE17=Rene - Nunca Mais Te Dou Meu Amor
TTITLE18=Amado Batista - Tá Com Raiva De Mim
EXTD=By MASTER®
EXTT0=
EXTT1=
EXTT2=
EXTT3=
EXTT4=
EXTT5=
EXTT6=
EXTT7=
EXTT8=
EXTT9=
EXTT10=
EXTT11=
EXTT12=
EXTT13=
EXTT14=
EXTT15=
EXTT16=
EXTT17=
EXTT18=
PLAYORDER=
